<svg xmlns="http://www.w3.org/2000/svg" fill="none" viewBox="0 0 46 55">
  <path fill="#000" d="M34.16.15h11.58v2.6c-.98.05-1.98.16-2.89.57a4.08 4.08 0 0 0-2.08 2.08L26.7 38.45c-.08.18-.14.37-.24.54-1.68-.02-3.36 0-5.04 0l-2.21-4.42-2.58 6.87h16.62a7.5 7.5 0 0 0 3-.42 9.54 9.54 0 0 0 3.86-3.18 26.51 26.51 0 0 0 3-5.25h2.8a2890.6 2890.6 0 0 1-5.34 11.33H2.3c.3-.81.6-1.63.94-2.43.02-.08.12-.06.18-.07 1.6-.01 3.2-.08 4.76-.4a4.9 4.9 0 0 0 2.28-1.03c.34-.32.44-.78.55-1.2l4.52-12.08L5.95 6.37a3.68 3.68 0 0 0-1.13-1.56c-1.1-.83-2.54-.93-3.87-.98V.9H14.4v2.92c-.58.03-1.2.02-1.73.31a.65.65 0 0 0-.35.72c.09.46.45.8.64 1.21l5.68 12.2 2.86-7.95c.14-.37.19-.8.03-1.17-.13-.3-.41-.47-.7-.6-.54-.22-1.14-.22-1.72-.26l.9-2.45c.07-.05.17-.02.25-.03H33.9l-.94 2.48c-1.1.05-2.22.08-3.25.5-.47.2-.91.5-1.2.94-.19.31-.3.67-.44 1.02-1.9 5.17-3.81 10.33-5.69 15.51 1.04 2.35 2.13 4.68 3.19 7.02L37.12 6.02c.26-.54.68-1.04.72-1.67.03-.5-.34-.92-.76-1.12-.91-.42-1.94-.44-2.92-.47V.15Zm7 48.91c1.22 1.26 2.43 2.53 3.63 3.8v-3.54h.63v5.05l-3.63-3.78v3.56h-.63v-5.09Zm-35.41.18c1.34-.2 2.76.84 2.88 2.2.1.79-.2 1.6-.77 2.14a2.6 2.6 0 0 1-3.55-.05 2.46 2.46 0 0 1-.74-1.86c.01-1.2 1-2.26 2.18-2.43Zm0 .62a1.9 1.9 0 0 0-1.53 1.58c-.15.88.4 1.83 1.25 2.12a1.9 1.9 0 0 0 2.13-.62c.62-.78.52-2.03-.25-2.67a1.9 1.9 0 0 0-1.6-.41Zm9.68-.36c.68-.52 1.8-.3 2.2.47-.16.1-.33.2-.5.28-.3-.46-1.02-.57-1.42-.18-.17.12-.15.35-.13.54.05.24.3.34.5.46.49.26 1.08.4 1.43.87.38.53.32 1.3-.1 1.79a1.6 1.6 0 0 1-1.86.38 1.7 1.7 0 0 1-.86-1.23l.64-.14c.02.46.38.92.86.93.66.07 1.18-.78.8-1.32-.41-.56-1.2-.56-1.67-1.04-.55-.45-.5-1.43.1-1.81Zm22.4-.27a2.54 2.54 0 0 1 2.06 4.34c-.52.53-1.3.74-2.03.67a2.46 2.46 0 0 1-1.8-1.04 2.56 2.56 0 0 1-.35-2.18 2.6 2.6 0 0 1 2.13-1.79Zm-.1.63a1.9 1.9 0 0 0-1.5 2.16c.12.92 1 1.67 1.92 1.65a1.9 1.9 0 0 0 1.57-.87c.52-.75.38-1.85-.28-2.47a1.88 1.88 0 0 0-1.71-.47Zm-36.27-.54h.6v4.28h1.49v.55h-2.1v-4.83Zm7.65 0h.64v2.85c0 .42.06.88.36 1.2.47.46 1.4.4 1.72-.2.17-.28.22-.61.21-.93v-2.92h.63v2.98c0 .45-.08.92-.36 1.28-.62.86-2.06.91-2.74.1a1.85 1.85 0 0 1-.46-1.27v-3.09Zm4.34 0h.63v4.83h-.63v-4.83Zm6.27 0h.7l1.42 3.53 1.41-3.52c.24-.02.48-.01.71-.01l-2.11 5.12c-.73-1.7-1.42-3.41-2.13-5.12Zm4.53 0h.63v2.8c.02.45.05.96.4 1.29.38.33 1 .35 1.43.05.24-.17.38-.46.43-.74.08-.5.05-1 .06-1.5v-1.9h.6v2.64c.02.55 0 1.14-.33 1.6-.58.84-1.92.93-2.66.25a1.84 1.84 0 0 1-.56-1.34V49.3Zm4.34 0h.65v4.83h-.65v-4.83Zm1.04 0h5.86v.58h-1.13v4.25h-.65V49.9h-2.3v4.25h-.6V49.9h-1.18v-.58Z"/>
</svg>
