<svg xmlns="http://www.w3.org/2000/svg" fill="none" viewBox="0 0 132 21">
  <path fill="#000" d="M3 20.63H1.18c-.15 0-.53 0-.53-.23 0-.16.08-.23.3-.31 1.69-.54 2.07-1.45 2.07-2.75V3.65C3 2.43 2.62 1.51.94.9.72.9.64.75.64.67c0-.3.38-.22.53-.22H16.3a6.23 6.23 0 0 1 6.27 6.19 6.23 6.23 0 0 1-6.27 6.19H8.66v4.66c.08 1.22.46 2.06 2.06 2.6.23.08.3.15.3.3 0 .23-.37.23-.53.23H3.01Zm112.8-7.42h3.6l-3.6-6.12-.38-.6-3.2 6.72h3.58Zm0-12.84h2.45l10.24 18.04c.3.46.69.92 1.14 1.15.38.3.84.38 1.22.53.16.08.31.16.31.31 0 .23-.38.23-.53.23h-9.1c-.15 0-.61 0-.61-.23 0-.15.15-.23.3-.3.47-.16.77-.39.92-.85.16-.53 0-.84-.38-1.53a129 129 0 0 0-1.6-3.28h-8.56l-.08.15c-.07.3-.68 1.37-1.14 2.52-.61 1.23-.84 1.53-.69 2.14.08.46.46.69.92.84.15.08.23.16.23.3 0 .24-.39.24-.54.24h-4.2c-.16 0-.54 0-.54-.23 0-.15.08-.23.3-.3.4-.16.85-.24 1.23-.54.46-.23.84-.7 1.15-1.15l.53-1.14 5.8-12.16-.83-1.46a6.6 6.6 0 0 0-2.37-2.44c-.38-.23-.77-.23-1.15-.38-.22-.08-.3-.16-.22-.31 0-.15.15-.08.22-.15h5.58ZM92.96 20.55h.3c14.06 0 13.91-20.1 0-20.1H81.72c-.23 0-.6-.09-.6.22 0 .08.14.23.3.23 1.68.53 2.06 1.45 2.14 2.6v14c-.08 1.22-.46 2.06-2.14 2.6-.16.07-.3.15-.3.3 0 .23.37.23.6.23h7.41v-.08h3.83Zm0-18.65a3.91 3.91 0 0 1 3.9 3.9v9.32a3.92 3.92 0 0 1-3.9 3.9h-3.83V1.9h3.83ZM63.83 13.2h3.59l-3.6-6.12-.38-.6-3.2 6.72h3.59Zm0-12.84h2.52L76.6 18.4c.23.46.6.92 1.07 1.15.38.3.84.38 1.3.53.15.08.3.16.3.31 0 .23-.46.23-.6.23h-9.1c-.15 0-.53 0-.53-.23 0-.15.07-.23.3-.3.38-.16.76-.39.84-.85.15-.53 0-.84-.3-1.53-.54-1.14-1.15-2.21-1.68-3.28h-8.57l-.07.15c-.08.3-.61 1.37-1.15 2.52-.53 1.23-.84 1.53-.68 2.14.15.46.45.69.91.84.15.08.3.16.3.3 0 .24-.38.24-.6.24H54.2c-.15 0-.61 0-.61-.23 0-.15.15-.23.3-.3.46-.16.84-.24 1.3-.54a3.1 3.1 0 0 0 1.07-1.15l.54-1.14L62.69 5.1l-.84-1.46a7.25 7.25 0 0 0-2.37-2.44c-.46-.23-.76-.23-1.22-.38-.15-.08-.3-.16-.23-.31.08-.15.23-.08.3-.15h5.5ZM38.62 13.75c1.76.6 3.9.76 5.58.22l6.65 5.74.53.46a.28.28 0 0 1 .08.23c0 .23-.38.23-.54.23H43.9l-5.27-4.36-4.28-3.44v4.74c.08 1.14.53 1.98 2.14 2.52.15.08.23.15.23.3 0 .23-.38.23-.54.23h-9.24c-.23 0-.62 0-.62-.23 0-.15.16-.23.3-.3 1.84-.61 2.07-1.53 2.15-2.98V3.88c-.08-1.37-.3-2.37-2.14-2.98-.15 0-.3-.15-.3-.23 0-.3.38-.22.6-.22h14.9a6.16 6.16 0 0 1 6.2 6.14v.05a6.17 6.17 0 0 1-6.14 6.19h-4.87c.23.45.77.6 1.23.84.15 0 .22.08.38.08Zm0-2.37h.61c1.99 0 3.67-2.15 3.67-4.9 0-2.67-1.68-4.81-3.67-4.81h-4.9v9.7h4.29Zm-25.6-9.71H8.66v9.7h5.05c2.06 0 3.66-2.14 3.66-4.89 0-2.67-1.6-4.81-3.66-4.81H13Z"/>
</svg>
