<svg xmlns="http://www.w3.org/2000/svg" fill="none" viewBox="0 0 142 24">
  <path fill="#231F20" d="M6.09 18.36a12.93 12.93 0 0 1-.16-13l.12-.22a6.76 6.76 0 0 1 5.84-3.63c1.54 0 3.19.45 4.46 1.11a12.85 12.85 0 0 1 5.17 6.14V4.87c0-.87-1.33-1.82-1.33-1.82A13.55 13.55 0 0 0 12.11.43c-1.22 0-2.94.31-2.94.31a11.25 11.25 0 0 0 1.06 22.16s1.16.17 1.93.12a13.6 13.6 0 0 0 8.63-3.07l.3-.36c.29-.37.46-.83.46-1.33v-3.22c0-.96.47-1.8 1.19-2.33h-6.02a2.9 2.9 0 0 1 1.2 2.33l.03 3.02c0 .6-.24 1.14-.63 1.54-.5.54-2.38 1.5-2.38 1.5a6.5 6.5 0 0 1-8.85-2.74Zm61.26-6.66c0 5.4 3.8 9.83 8.89 10.9 0 0 1.71.31 2.94.31 3.02 0 5.77-.94 8.03-2.6 0 0 1.38-.86 1.38-1.73l.54-4.1c-1.56 3.87-4.19 5.32-5.71 6.2a10.1 10.1 0 0 1-4.46 1.14 6.62 6.62 0 0 1-5.83-3.5L73 18.1a12.97 12.97 0 0 1 0-12.8l.12-.22a6.77 6.77 0 0 1 5.84-3.63c1.54 0 3.18.45 4.46 1.12a12.86 12.86 0 0 1 5.17 6.12V4.81c0-.87-1.33-1.82-1.33-1.82A13.57 13.57 0 0 0 79.18.37c-1.23 0-2.94.31-2.94.31a11.25 11.25 0 0 0-8.89 11.02Zm35.01.01c0 5.4 3.8 9.84 8.89 10.9a13.4 13.4 0 0 0 10.97-2.3c0 .01 1.38-.84 1.38-1.71l.54-4.1c-1.56 3.86-4.18 5.32-5.7 6.2a10.1 10.1 0 0 1-4.46 1.14 6.62 6.62 0 0 1-5.84-3.5l-.13-.22a12.98 12.98 0 0 1 0-12.8l.12-.23a6.76 6.76 0 0 1 5.85-3.62c1.53 0 3.18.45 4.45 1.11a12.85 12.85 0 0 1 5.17 6.13V4.83c0-.87-1.33-1.82-1.33-1.82A13.58 13.58 0 0 0 114.2.39c-1.22 0-2.94.3-2.94.3a11.26 11.26 0 0 0-8.89 11.02Zm39.36-10.35h-5.85c.72.5 1.19 1.33 1.19 2.27V20.7c0 .92-.45 1.73-1.13 2.23h5.72a2.77 2.77 0 0 1-1.12-2.23V3.63c0-.94.47-1.77 1.19-2.27Zm-101.13 0h-5.85a2.8 2.8 0 0 1 1.19 2.3v12.76a6.32 6.32 0 0 0 3.7 5.21l.02.02a12.5 12.5 0 0 0 5.49 1.28c2 0 3.9-.42 5.57-1.26l.04-.01a6.31 6.31 0 0 0 3.67-5.25V3.6c0-.95.47-1.74 1.19-2.24h-3.42a2.7 2.7 0 0 1 1.19 2.24v12.85a5.25 5.25 0 0 1-1.87 3.52l-.04.04a8.98 8.98 0 0 1-8.48.92l-.11-.04a5.34 5.34 0 0 1-3.48-4.46V3.66c0-.95.47-1.8 1.19-2.3Z"/>
</svg>
