<svg xmlns="http://www.w3.org/2000/svg" fill="none" viewBox="0 0 141 34">
  <path fill="#000" fill-rule="evenodd" d="M113.77 19.4v-5.5h5.1v-1.1h-5.1V7.26c1.6-.2 3.4-.2 5.3 0l.1-1.01h-7.22V19.7l-4.1-4.82V14c1.9-.6 2.9-2 2.9-4.21 0-2.2-2.3-3.52-4.21-3.52h-4.6V20.7h2.2V7.17c2.01 0 4.1.7 4.1 2.92 0 2.2-1.1 3.3-2.8 3.8l.1.9 6.4 7.51 2.62.5-1.8-2.1h6.42l1.2-2.6a9.37 9.37 0 0 1-6.61 1.3ZM99.83 6.26h-1.1v8.24c0 3 0 5.4-2.61 5.4-2.42 0-2.9-1.4-2.9-5.21V6.26H91.5v8.83c0 3.9.62 6.3 4.62 6.3 3.8 0 3.71-4.5 3.71-6.5V6.25ZM53.63 20.7h1.7V6.26h-1.7V20.7ZM86.7 6.26 86 7.59 79.07 20.7h2.1l2.8-5.82h3.43l1.3 5.82h2.1L87.1 6.26h-.4Zm-.7 7.02h-1.2l1.2-2.63.3-.68.9 3.3H86Z" clip-rule="evenodd"/>
  <path fill="#000" fill-rule="evenodd" d="M77.08 24.26 82.14.9h-2.1l-1.1 5.35H68.37V17.3L59.04 6.26h-1.3V20.7h1.3V9.68l9.34 11.02h1.49V7.48c1-.31 1.81-.31 2.7.2V20.7h1.69V7.67c.8-.66 2.82-.7 4.3.31l-3.43 17.5 10.86-.24 1-.02.41-1.97-1.41.14-8.91.87Zm-28.05-18-.71 1.35-5.2 9.98a4.4 4.4 0 0 0-1-2c-2.02-2.7-6.83-6.12-7.12-9.62-.22-2.51 1.7-4.31 4.21-4.5 1.8-.12 4.31 1.39 5 2.8l1.61-1C44.51.97 41.01.37 39 .37c-1.7 0-3.4 1.08-4.58 2.31-.93.95-1.55 2-1.63 2.7v1.1c-3.2-1.2-6.92-.32-6.72 4.1.21 2.6 4.71 4.2 5.31 5.71.6 1.41 1 3.3-1.8 3.4-2.32.22-3.2-1.39-3.2-1.6-1 1.31-6.02 1.91-6.52 1.32v-5.63h5.1v-1.1h-5.1V7.27c1.6-.2 3.4-.2 5.32 0l.1-1.1h-7.24v.09h-.6l-5.1 10.34-1.81-10.34h-.6L13.95.85h-1.92l-6.7 9.93h-.6L2.2.85H.51l2.2 11.94-2.4 12.12h1.9l2.9-12.02 3.83-5.12 2.3 12.93h.7l6.1-12.33V20.7h7.23l.6-1c.91.9 2.2 1 3.4 1h1.1v2.7a9.17 9.17 0 0 0 4.05 1.98c2.7.64 5.8.2 7.7-2.26.5-.72.78-1.51 1-2.42h.4l2.8-5.82h3.4l1.3 5.82h2.1l-3.7-14.44h-.39ZM36.8 24.82a7.07 7.07 0 0 1-2.37-.43c-1.68-.66-2.38-2.05-3.54-3.79 3.4-.4 3.8-2.5 2.7-5-.9-1.82-6-4.53-6-6.32 0-3.02 4-3.02 5.31-.41l.2-.7c.3.87.77 1.65 1.33 2.36 1.83 2.4 4.7 4.2 6.09 6.67 2 3.71-.31 7.62-3.72 7.62Zm11.53-11.54h-1.2l1.2-2.63.3-.68.91 3.3h-1.21Zm84.27-7.02h-1.5V17.3l-9.33-11.04h-1.3V20.7h1.3V9.68l9.34 11.02h1.48V7.48c1-.31 1.82-.31 2.71.2V20.7h1.72V7.67c.89-.7 2-.6 3.9.1V6.26h-8.33ZM58.7 29.61a2.4 2.4 0 0 0-1.95 1.3c-.24.38-.34.79-.34 1.2 0 .17.04.36.12.54.08.17.21.3.39.38.17.1.36.16.6.16.32 0 .65-.1.96-.27.24-.14.47-.35.72-.64l-.12-.1c-.17.18-.35.3-.54.37-.17.08-.35.14-.5.14a.61.61 0 0 1-.48-.24c-.14-.13-.2-.33-.2-.58a2.7 2.7 0 0 1 .76-1.83.91.91 0 0 1 .6-.25c.07 0 .13.01.19.05.04.04.06.06.06.12s-.06.12-.16.17c-.11.1-.2.24-.2.35 0 .12.05.2.12.27a.4.4 0 0 0 .3.12c.13 0 .25-.06.34-.18a.57.57 0 0 0 .18-.42c0-.2-.08-.35-.22-.47-.15-.13-.36-.19-.63-.19Zm3.98.14a1.4 1.4 0 0 0-1.18-.02 2.32 2.32 0 0 0-.97.66c-.21.2-.39.48-.54.79-.14.29-.2.62-.2.96 0 .3.08.55.28.74.2.21.44.3.79.3.21 0 .43-.03.64-.1a2.58 2.58 0 0 0 1.35-1.2c.23-.4.35-.8.35-1.2a1.03 1.03 0 0 0-.52-.93Zm-.56 1.5a5.05 5.05 0 0 1-.62 1.45.9.9 0 0 1-.18.2.4.4 0 0 1-.25.1.34.34 0 0 1-.25-.12c-.08-.08-.1-.18-.1-.3 0-.46.1-.98.33-1.56.16-.42.31-.73.45-.93.04-.07.1-.11.13-.17a.5.5 0 0 1 .33-.12c.08 0 .16.04.22.12.07.08.1.17.1.31 0 .3-.05.66-.16 1.02Zm2.61 1.38c-.04.03-.08.06-.12.06-.02 0-.06 0-.08-.04-.02-.02-.02-.04-.02-.08 0-.06.04-.21.1-.47l1.16-3.9.08-.3h-.22l-1.25.22-.06.14a.7.7 0 0 1 .33.06c.06.03.08.1.08.15 0 .06-.04.17-.08.37l-1.03 3.46c-.05.2-.07.35-.07.44 0 .12.04.22.13.31.1.1.23.14.4.14.18 0 .34-.06.51-.18.21-.15.45-.42.7-.8l-.16-.07c-.13.24-.27.4-.4.49Zm17.07-2.88a1.4 1.4 0 0 0-1.18-.02 2.33 2.33 0 0 0-.97.66c-.21.2-.39.48-.54.79-.14.29-.2.62-.2.96 0 .3.08.55.27.74.2.21.45.3.8.3.21 0 .42-.03.64-.1a2.58 2.58 0 0 0 1.35-1.2c.23-.4.35-.8.35-1.2a1.03 1.03 0 0 0-.52-.93Zm-.57 1.5a5.13 5.13 0 0 1-.61 1.45.9.9 0 0 1-.18.2.4.4 0 0 1-.25.1.34.34 0 0 1-.25-.12c-.08-.08-.1-.18-.1-.3 0-.46.1-.98.33-1.56.16-.42.31-.73.45-.93.03-.07.1-.11.13-.17a.5.5 0 0 1 .33-.12c.08 0 .15.04.21.12.08.08.1.17.1.31 0 .3-.04.66-.16 1.02Zm-2.91-3.35a.48.48 0 0 0-.4.17c-.1.1-.15.23-.15.38 0 .16.04.27.16.39.1.1.23.15.38.15.16 0 .28-.06.4-.15a.61.61 0 0 0 .15-.39c0-.15-.04-.29-.16-.38a.49.49 0 0 0-.39-.18Zm7.82 4.38a1.1 1.1 0 0 1-.25.3.14.14 0 0 1-.07.03c-.02 0-.04 0-.06-.02a.14.14 0 0 1-.04-.08l.06-.27.48-1.6c.06-.2.1-.37.1-.5a.57.57 0 0 0-.14-.37.49.49 0 0 0-.35-.16c-.13 0-.29.06-.46.14-.16.1-.35.27-.58.52-.15.15-.39.48-.7.95l.47-1.6h-.23l-1.26.22-.04.14c.12 0 .21 0 .25.02.04.02.08.04.1.08.02.01.02.05.02.1 0 .09-.02.26-.1.5l-.7 2.41h.95l.31-1.12a5.4 5.4 0 0 1 1-1.47c.14-.13.26-.2.35-.2.02 0 .06.03.08.05.02.02.02.04.02.05 0 .06 0 .14-.04.24l-.46 1.6c-.06.21-.1.37-.1.46 0 .12.04.24.14.31.08.08.21.12.36.12.41 0 .78-.31 1.15-.93l-.14-.08c-.06.06-.08.12-.12.16Zm-7.59-2.67h-.23l-1.26.21-.06.16c.06-.02.1-.02.14-.02.07 0 .15.02.19.08.06.04.08.07.08.13 0 .1-.02.21-.08.39l-.52 1.8-.02.04-.04.3a1 1 0 0 0 .04.24l.1.11c.1.1.23.14.38.14.43 0 .83-.33 1.2-.99l-.12-.08a2 2 0 0 1-.4.5.17.17 0 0 1-.14.07c-.02 0-.04-.02-.06-.04-.03-.02-.03-.04-.03-.08l.05-.3.78-2.66Zm-4.37.19c-.14-.13-.33-.19-.6-.19a2.4 2.4 0 0 0-1.95 1.3c-.24.38-.35.79-.35 1.2 0 .17.06.36.13.54.08.17.22.3.4.38.17.1.36.16.57.16.35 0 .66-.1.99-.27.23-.14.46-.35.67-.64l-.1-.1c-.15.18-.32.3-.51.37-.18.08-.35.14-.5.14a.61.61 0 0 1-.5-.24c-.13-.13-.18-.33-.18-.58a2.61 2.61 0 0 1 .75-1.83c.2-.16.39-.25.6-.25.08 0 .13.01.2.05.03.04.05.06.05.12s-.06.12-.15.17c-.14.1-.2.24-.2.35 0 .12.04.2.12.27.08.08.17.12.27.12.11 0 .25-.06.35-.18.11-.11.15-.25.15-.42 0-.2-.06-.35-.21-.47Zm-3.77-.19c-.27 0-.56.06-.85.18a2.84 2.84 0 0 0-1.64 1.9 2.4 2.4 0 0 0-.06.51c0 .14.02.25.06.37a1 1 0 0 0 .17.3c.16.22.44.32.87.32a2.06 2.06 0 0 0 .9-.22c.28-.15.55-.4.84-.75l-.12-.1c-.23.22-.44.37-.61.45-.14.06-.28.12-.41.12l-.12.01a.54.54 0 0 1-.42-.17.61.61 0 0 1-.18-.44c0-.12.02-.26.04-.41.27-.02.5-.06.68-.1l.06-.02c.27-.07.52-.17.73-.32.21-.14.4-.33.54-.57a.91.91 0 0 0 .16-.52c0-.15-.04-.29-.16-.38-.1-.1-.27-.16-.48-.16Zm-.33 1c-.08.2-.17.35-.29.47l-.23.2a.32.32 0 0 1-.14.07c-.11.06-.29.1-.5.14a3.9 3.9 0 0 1 .64-1.34c.02-.02.04-.02.04-.04.15-.17.29-.25.4-.25.06 0 .12.02.16.06.04.04.06.1.06.17 0 .16-.06.33-.14.53Zm-3.21 2.02a.21.21 0 0 1-.13.06c-.02 0-.06 0-.08-.04-.02-.02-.02-.04-.02-.08 0-.06.04-.21.1-.47l1.18-4 .05-.2h-.21l-1.25.22-.04.14c.13 0 .23.02.3.06.06.03.08.1.08.15 0 .06-.02.17-.07.37l-1.01 3.44-.02.02c-.06.2-.08.35-.08.44 0 .1.02.18.1.25 0 .02.02.04.04.06.1.1.23.14.4.14.18 0 .35-.06.5-.18.24-.15.47-.42.7-.8l-.15-.07c-.14.24-.27.4-.39.49Zm9.36-2.48h.48l.08-.27.06-.15h-.49l.3-1.03h-.2c-.3.35-.56.6-.8.76-.2.15-.48.3-.8.42l-.06.27h.5l-.6 2.03c-.06.21-.1.4-.1.54s.06.25.16.33c.08.1.21.14.39.14.19 0 .4-.08.61-.22.2-.13.39-.34.56-.65l-.13-.08c-.16.21-.3.37-.4.45-.05.03-.08.05-.12.05-.04 0-.06-.02-.08-.04-.02-.02-.04-.03-.04-.07 0-.08.02-.18.06-.31l.62-2.17Z" clip-rule="evenodd"/>
</svg>
