<svg xmlns="http://www.w3.org/2000/svg" fill="none" viewBox="0 0 164 15">
  <path fill="#2D2A08" d="M8.47 10.35c0-2.95-2.69-3.4-4.3-3.4H3.7v6.52h1.1c2.34 0 3.67-1.13 3.67-3.12ZM3.7 6.11h1.05c1.7 0 2.56-.8 2.56-2.35 0-1.44-.85-2.23-2.4-2.23H3.7v4.58Zm2.96.36c2.12.3 4.27 1.51 4.27 4.03 0 1.35-.69 2.37-2.05 3.04a9.11 9.11 0 0 1-3.8.76H.96v-.26c.54-.26.53-1.15.53-1.77V2.71c0-.62.01-1.5-.53-1.77V.68h3.33c1.77 0 3.06.22 3.86.64a2.7 2.7 0 0 1 1.48 2.36c0 1.28-.97 2.19-2.97 2.79Zm17.66 1.02c0-3.47-1.73-6.28-4.62-6.28-2.88 0-4.62 2.81-4.62 6.28s1.74 6.28 4.62 6.28c2.89 0 4.62-2.81 4.62-6.28ZM19.7.37c4 0 7.25 3.19 7.25 7.12a7.19 7.19 0 0 1-7.25 7.13c-4 0-7.25-3.2-7.25-7.13A7.19 7.19 0 0 1 19.7.37Zm7.71 1.79V.66h8.54v1.5h-.25c-.44-.68-1.2-.67-1.82-.67h-1.1v10.78c0 .63-.02 1.5.52 1.77v.26h-3.24v-.26c.54-.26.53-1.14.53-1.77V1.5h-1.1c-.62 0-1.38 0-1.83.67h-.25Zm10.83 0V.66h8.54v1.5h-.25c-.44-.68-1.2-.67-1.82-.67h-1.1v10.78c0 .63-.02 1.5.52 1.77v.26H40.9v-.26c.54-.26.53-1.14.53-1.77V1.5h-1.1c-.62 0-1.38 0-1.82.67h-.26Zm18.03 11.32c.61 0 1.4 0 1.82-.67h.25v1.5h-9.16v-.26c.68-.45.68-1.27.68-1.9V2.82c0-.64 0-1.45-.68-1.9V.66h8.6v1.5h-.25c-.44-.67-1.21-.67-1.82-.67h-3.67v5.39h3.08c.62 0 1.5 0 1.74-.53h.26v1.89h-.26c-.24-.54-1.12-.53-1.74-.53h-3.08v5.77h4.23Zm14.2-5.29v-.25h3.43a6.61 6.61 0 0 1-6.86 6.68 7.6 7.6 0 0 1-5.17-1.96 6.77 6.77 0 0 1-2.2-5.05 7.56 7.56 0 0 1 2.94-5.83A7.15 7.15 0 0 1 67 .37c.87 0 1.73.11 2.48.32.16.05.61.17 1.12.23.46.05 1.12.04 1.4-.23h.25v3.13l-.25.05a5.1 5.1 0 0 0-4.76-2.65c-1.7 0-3.01.63-3.9 1.89-.75 1.09-1.07 2.6-1.07 4.38 0 1.68.32 3.2 1.05 4.3a4.3 4.3 0 0 0 3.74 1.96c2.08 0 4.32-1.67 4.32-4.16 0-1.27-.9-1.4-.9-1.4m11.37.85L79.73 3.5 77.6 9.04h4.23Zm3.72 3.56c.14.33.5 1.25 1 1.43v.27H82.9v-.27c.48-.22.6-.62.4-1.16l-1.13-3H77.3l-1.14 3c-.2.54-.08.93.4 1.16v.27h-2.34v-.27c.54-.15.98-.98 1.16-1.46L79.92.68h1.03l.02.04 4.58 11.88ZM102.78.93V.66h2.33v.27c-.52.15-.97.95-1.14 1.46l-4.1 11.91h-1.13L94.73 2.36c-.19-.54-.53-1.25-.98-1.43V.66h3.63v.27c-.67.32-.49 1.04-.38 1.33l3 9.03 3.2-9.3c.1-.33.12-.8-.42-1.06m11.4 12.55c.61 0 1.4 0 1.82-.67h.25v1.5h-9.16v-.26c.68-.45.68-1.27.68-1.9V2.82c0-.64 0-1.45-.68-1.9V.66h8.6v1.5h-.25c-.44-.67-1.21-.67-1.82-.67h-3.68v5.39h3.08c.62 0 1.5 0 1.75-.53h.26v1.89h-.26c-.24-.54-1.13-.53-1.75-.53h-3.08v5.77h4.24M127 .92V.66h1.74v.26c-.43.28-.43 1.12-.43 1.4V14.3h-.57l-7.77-11.19v9.54c0 .27 0 1.12.43 1.4v.25h-1.74v-.25c.44-.28.43-1.13.43-1.4V2.76c0-.62 0-1.41-.66-1.84V.66h2.67l.02.03 6.31 9.07V2.31c0-.27 0-1.12-.42-1.4Zm11.43 12.56c.62 0 1.4 0 1.82-.67h.26v1.5h-9.17v-.26c.69-.45.68-1.27.68-1.9V2.82c0-.64 0-1.45-.68-1.9V.66h8.6v1.5h-.25c-.44-.67-1.2-.67-1.82-.67h-3.67v5.39h3.08c.62 0 1.5 0 1.75-.53h.25v1.89h-.25c-.24-.54-1.13-.53-1.75-.53h-3.08v5.77h4.23m3.95-11.32V.66h8.54v1.5h-.25c-.44-.68-1.2-.67-1.82-.67h-1.1v10.78c0 .63-.02 1.5.52 1.77v.26h-3.24v-.26c.54-.26.53-1.14.53-1.77V1.5h-1.1c-.62 0-1.38 0-1.82.67h-.26m16.34 6.87-2.1-5.55-2.11 5.55h4.21Zm3.7 3.57c.14.33.51 1.25 1 1.44v.26h-3.64v-.26c.47-.22.6-.63.4-1.16l-1.13-3.02h-4.85l-1.14 3.02c-.2.53-.08.93.4 1.16v.26h-2.33v-.27c.53-.15.98-.98 1.15-1.45L156.83.66h1.02l.02.04 4.56 11.9Z"/>
</svg>
