<svg xmlns="http://www.w3.org/2000/svg" fill="none" viewBox="0 0 89 36">
  <path fill="#211E1E" d="M74.32 22.13c-.03-.16-.03-.3.8-.57.82-.25 2.82-.93 4.04-1.6 1.21-.68 1.41-.77 1.7-.58.28.19.2.65.2.97v3.3c.45-.74 1.9-3.16 3.07-3.88.9-.56 1.23-.6 1.8-.62.67-.01 2.27.4 2.34 2.1.06 1.31-.92 1.84-1.54 1.76-.5-.07-.85-.53-1.14-.99-.3-.46-.77-.74-1.25-.58-.47.16-3.12 1.88-3.27 4.32-.1 1.8 0 7.4 0 7.4 0 .84.33 1.17.7 1.4.39.23 1.78.24 2.17.3.4.05.38.14.38.26s0 .18-.35.18h-9.31c-.3 0-.42-.06-.42-.23 0-.24.4-.2.69-.24.3-.04 1.87.09 2.32-.7.33-.52.3-1.36.3-1.36l-.05-9.83c0-.8-.24-.91-.46-1.04-.22-.12-.58-.19-1.35.07-.73.24-1.23.46-1.37.16Zm-32.55 0c-.13-.24.1-.4.8-.58.76-.2 2.45-.71 3.79-1.47 1.34-.75 1.57-.83 1.85-.74.28.1.26.6.26 1v12.72c0 .72.1 1.01.41 1.31.33.3 1.14.47 2.2.47.47 0 .61.06.61.26s-.14.2-.33.2h-9.24c-.29 0-.35-.12-.35-.24 0-.15.12-.25.55-.25.36 0 2.04.13 2.42-.74.14-.33.21-.8.21-1.22v-10.1c0-.76-.6-1.1-1.28-.94-.8.19-1.74.64-1.9.32Zm4.71-8.8a2.27 2.27 0 1 0 0-4.54 2.27 2.27 0 0 0 0 4.54Zm11.1 14.43c.46 4.13 2.92 7.34 5.97 6.8s4.58-3.45 4.21-8.12c-.37-4.74-2.72-7.11-5.89-6.83-3.27.3-4.75 4.02-4.3 8.15Zm3.02-8.87c3.94-.74 9.54.13 10.81 6.28 1.27 6.15-2.97 9.43-6.65 10.23-3.6.78-9.7.22-10.8-6.4a8.62 8.62 0 0 1 6.64-10.1ZM14 34.3h2.28c8.5 0 10.77-.78 13.76-4.75 3-3.96 3.35-9.66 3.35-11.58s-.52-6.75-3.5-10.84C26.89 3.05 21.9 2 17.54 2h-3.56c-.84 0-.88.37-.88.96v30.6c0 .68.23.76.9.76Zm-13.83.72c0-.3.4-.36.78-.37 4.32-.12 5.13-.27 5.62-.79.27-.28.67-.5.67-2.5V3.81c0-2.47-3-2.08-5.13-2.3-.75-.07-.8-.17-.8-.39 0-.21.13-.32.52-.33h17.42C38.4.8 39.38 14.78 39.38 18.5c0 8.02-5.3 16.84-16.4 16.84H.74c-.27 0-.56-.04-.56-.32Z"/>
</svg>
