<svg xmlns="http://www.w3.org/2000/svg" fill="none" viewBox="0 0 99 20">
  <path fill="#000" fill-rule="evenodd" d="M89.75 16.89v-5.6h6.32V8.43h-6.32V4h7.84V1.13H86.5v18.62h11.9v-2.86h-8.64Zm-8.9 3.57.03-19.35h-3.24l.05 12.25L63.5.6l-.03 19.15h3.24l-.06-11.78 14.21 12.5Zm-23.06-.72V1.11h-3.23v18.63h3.23Zm-18.52 0h11.25V16.9H42.5V1.1h-3.23v18.64Zm-16.74 0h11.88V16.9h-8.64v-5.6h6.32V8.43h-6.32V4h7.83V1.13H22.53v18.62Zm-18.91-9.4a6.6 6.6 0 0 1 6.82-6.78c1.98 0 3.92.7 5.26 1.97l1.72-2.2C16.8 2.6 14.36.7 10.44.7 4.38.7.18 5.18.18 10.4c0 5.35 4.42 9.79 10.62 9.79 2.73 0 5-.86 6.75-2.49l-1.5-2.05c-.75.74-2.7 1.7-5.1 1.7-4.32 0-7.33-3.13-7.33-7.02Z" clip-rule="evenodd"/>
</svg>
