<svg xmlns="http://www.w3.org/2000/svg" fill="none" viewBox="0 0 138 21">
  <path fill="#000" fill-rule="evenodd" d="m7.65.3.04.45H5.43l4.3 15.73C10.85 12.7 12.95 6.18 14 2.34c.15-.58-.1-1.1-.51-1.32-.33-.17-1.07-.11-1.5-.13l-.06-.6h5.2v.46c-.7.03-1.94.16-2.19.86-2.2 6.04-4.6 14.2-6.17 19.36h-.25L2.6.75H.69L.63.3h7Zm16.52 13.8-5.03-.04a55.95 55.95 0 0 0-1.31 4.95c-.13.6-.05.8.13 1.07.19.27 1.34.1 2.03.14l-.04.44h-4.78l-.05-.44c.45-.05 1.58.13 1.73-.33C18.5 15.25 20.97 5.41 22.61 0h.27l5.73 20.23h1.8v.44h-6.78v-.44h2.29l-1.75-6.12Zm-2.48-9.2-2.43 8.83h4.83L21.7 4.9Zm12.18-4H31.5V.3h7.18v.6h-2.4v19.39c1.2 0 2.43-.07 3.62-.03 4.53.12 5.41-1.78 5.4-6.09l.34-.04-.05 6.55H31.47v-.4h2.4V.9Zm15.45.07h-2.07v-.6h12.67l.34 5.1-.33-.05c-.2-1.66-.27-2.15-.97-3.09s-1.97-1.25-3.34-1.27L51.82 1l-.05 9.29c.66-.02 1.34-.02 2-.07.67-.03 1.68-.39 2.03-.9.36-.52.42-1.45.48-2.75h.36l.04 7.57h-.49l-.02-.14c-.01-.9.11-1.67-.43-2.49-.32-.52-1.38-.9-2.3-.86l-1.67.05.04 9.6c2.28 0 6.24.4 7.95-1.36.73-.73.92-2.32.92-3.98l.46.03-.03 5.68H47.3l-.05-.4h2.07V.95Zm27.5.04c-.29-.28-1.5-.17-2.07-.17L74.8.3l4.95.03v.42C78.1.8 77.54.58 77.5 2.25c-.15 4.71-.03 15-.04 18.72L77 21 65.61 1.63c-.03 2.87-.1 13-.1 17.03 0 2.03 1.06 1.52 2.5 1.5v.5h-5.24v-.41c2.38-.07 2.36.07 2.4-2.9.04-5.29.07-10.9.09-16.58L62.89.8V.3l5.07.03 9.08 15.32c-.01-1.54.05-10.43.02-13.66-.02-.56-.14-.92-.23-.99Zm41.5.02c-.3-.28-1.5-.17-2.08-.19l.05-.52 4.95.04v.42c-1.66.03-2.2-.19-2.26 1.49-.15 4.72-.03 15-.04 18.7l-.44.04-11.4-19.37c-.03 2.89-.1 13-.1 17.03 0 2.03 1.06 1.52 2.5 1.5v.5h-5.24v-.41c2.38-.07 2.38.07 2.4-2.89.04-5.3.07-10.9.09-16.58-1.16.02-1.78.02-2.37.02V.3l5.08.03 9.08 15.31c-.02-1.54.04-10.43.01-13.64-.02-.57-.14-.93-.23-1ZM86.77.85C84.62.8 82.7.97 81.95 1.9c-.76.92-.68 2.22-.87 4.31l-.34.05.03-5.96h14.54l.08 6H95c-.2-2.35-.15-3.67-.94-4.43C93.27 1.1 91.01.8 89.26.8l-.04 19.4 2.38.04v.44h-7.3v-.44h2.43l.04-19.4Zm12.06.04h-2.1V.3h6.66v.6h-2.14v19.3h2.05v.5h-6.7v-.5h2.23V.9Zm31.23-.53c-.2 0-.42.02-.64.06a5.3 5.3 0 0 0-.66.2c-.87.34-1.67 1.21-2.4 2.64-.72 1.44-1.08 3.83-1.08 7.18 0 3.33.35 5.7 1.07 7.14.72 1.43 1.51 2.32 2.36 2.68a3.14 3.14 0 0 0 1.35.28 3.25 3.25 0 0 0 1.36-.28c.85-.38 1.64-1.28 2.35-2.71.73-1.45 1.08-3.81 1.08-7.1 0-3.05-.3-5.26-.9-6.67-.61-1.41-1.28-2.37-2-2.86a3.23 3.23 0 0 0-1.9-.56Zm-7.5 10.13c0-2.98.68-5.38 2.04-7.18 1.36-1.82 2.84-2.89 4.48-3.22l.51-.06c.17-.03.33-.03.48-.03 1.95 0 3.7.97 5.25 2.95 1.55 1.96 2.32 4.48 2.32 7.54 0 2.89-.62 5.2-1.86 6.93-1.23 1.75-2.6 2.84-4.07 3.3a4.8 4.8 0 0 1-2.9.11 6.7 6.7 0 0 1-1.41-.54 9.97 9.97 0 0 1-3.33-3.41c-1.02-1.6-1.53-3.72-1.51-6.39Z" clip-rule="evenodd"/>
</svg>
